<?xml version="1.0" encoding="UTF-8"?><svg id="Video" xmlns="http://www.w3.org/2000/svg" viewBox="0 0 1000 1000"><defs><style>.cls-1{fill:#fff;}.cls-2{fill:#ffdaa9;}.cls-3{font-size:86.76px;}.cls-3,.cls-4,.cls-5{font-family:ProximaNova-Black, 'Proxima Nova';font-weight:800;}.cls-4{font-size:33.3px;}.cls-6{letter-spacing:-.06em;}.cls-7{letter-spacing:-.01em;}.cls-5{font-size:59.76px;}.cls-8{fill:none;stroke:#7731ff;stroke-miterlimit:10;stroke-width:20px;}.cls-9{fill:#6f00ff;}.cls-10{letter-spacing:-.02em;}.cls-11{font-family:ProximaNova-Bold, 'Proxima Nova';font-size:34.17px;font-weight:700;}.cls-12{fill:#fff6e8;}.cls-13{fill:red;}.cls-14{letter-spacing:0em;}</style></defs><g id="Warstwa_2"><circle class="cls-9" cx="500" cy="500" r="442.89"/><path class="cls-8" d="M168.89,794.15s171.3-147.19,203.46-61.77,129.64-48.17,187.87-56.51,125.61,108.48,43.62,123.24-16.4-108.62,25.23-116.31,79.8,102.06,127.85,41.73,47.14-58.02,72.62-71.39c24.77-13,83.55,6.86,83.55,6.86"/><path class="cls-8" d="M61.06,559.4s39.95-6.77,75.43-17.35c14.84-4.42,44.42-8.34,139.39-85.44,94.97-77.1,173.97,41.84,225.17,32.98,88-15.24,68-61.9,136-105.9s218.08,20.02,252,21.33,43.58-.27,43.58-.27"/><path class="cls-8" d="M355.67,81.16s2.65,8.18,7.86,20.3-6.29,124.93,137.4,103.93,127.81-54.03,171.71-55.36c43.9-1.32,59.32-27.39,59.32-27.39"/></g><g id="Warstwa_10"><rect class="cls-12" x="74.47" y="258.79" width="851.07" height="478.72" rx="20" ry="20"/><text class="cls-4" transform="translate(138.27 720.07)"><tspan x="0" y="0">0:03/3:41</tspan></text><polygon points="123.17 708.83 100.29 697.19 100.29 720.07 123.17 708.83"/><rect x="95.51" y="670.9" width="808.97" height="8.24" rx="4.12" ry="4.12"/><path d="M861.82,709.96c.04-.36,.08-.72,.08-1.09s-.03-.73-.08-1.09l2.37-1.85c.21-.17,.27-.47,.13-.72l-2.24-3.88c-.14-.24-.43-.34-.68-.24l-2.79,1.13c-.58-.44-1.21-.82-1.89-1.1l-.42-2.97c-.05-.26-.28-.47-.56-.47h-4.48c-.28,0-.51,.21-.55,.47l-.42,2.97c-.68,.29-1.32,.66-1.89,1.1l-2.79-1.13c-.25-.1-.54,0-.68,.24l-2.24,3.88c-.14,.24-.08,.54,.13,.72l2.36,1.85c-.04,.36-.08,.72-.08,1.09s.03,.73,.08,1.09l-2.36,1.85c-.21,.17-.27,.47-.13,.72l2.24,3.88c.14,.24,.43,.34,.68,.24l2.79-1.13c.58,.44,1.21,.82,1.89,1.1l.42,2.97c.04,.26,.27,.47,.55,.47h4.48c.28,0,.51-.21,.55-.47l.42-2.97c.68-.29,1.32-.66,1.89-1.1l2.79,1.13c.25,.1,.54,0,.68-.24l2.24-3.88c.14-.24,.08-.54-.13-.72l-2.36-1.85Zm-8.32,2.83c-2.17,0-3.92-1.75-3.92-3.92s1.75-3.92,3.92-3.92,3.92,1.75,3.92,3.92-1.75,3.92-3.92,3.92Z"/><g><polygon points="904.49 720.07 904.49 713.87 902.66 713.87 902.66 718.24 898.54 718.24 898.54 720.07 904.49 720.07"/><polygon points="883.91 718.24 883.91 713.87 882.09 713.87 882.09 720.07 888.03 720.07 888.03 718.24 883.91 718.24"/><polygon points="904.49 703.37 904.49 697.67 898.54 697.67 898.54 699.5 902.66 699.5 902.66 703.37 904.49 703.37"/><polygon points="882.09 697.67 882.09 703.37 883.91 703.37 883.91 699.5 888.03 699.5 888.03 697.67 882.09 697.67"/></g><rect class="cls-2" x="190.15" y="390.67" width="613.38" height="162.18" rx="20" ry="20"/><text class="cls-5" transform="translate(287.6 322.27)"><tspan x="0" y="0">Język polski</tspan></text><text class="cls-3" transform="translate(195.13 523.67)"><tspan x="0" y="0">„</tspan><tspan class="cls-10" x="45.81" y="0">P</tspan><tspan x="101.51" y="0">an </tspan><tspan class="cls-6" x="224.8" y="0">T</tspan><tspan x="271.22" y="0">adeusz”</tspan></text><text class="cls-11" transform="translate(362.4 437.47)"><tspan x="0" y="0">Adam Mickiewicz</tspan></text><text class="cls-11" transform="translate(341.39 634.64)"><tspan class="cls-7" x="0" y="0">S</tspan><tspan class="cls-14" x="20.13" y="0">treszczenie lektury</tspan></text><g><path class="cls-1" d="M638.93,301.31v-14.44c0-5.25,3.58-9.52,7.97-9.52h47.42c4.39,0,7.97,4.27,7.97,9.52v14.44h-63.36Z"/><path d="M694.32,278.35c3.85,0,6.97,3.82,6.97,8.52v13.44h-61.36v-13.44c0-4.71,3.12-8.52,6.97-8.52h47.42m0-2h-47.42c-4.95,0-8.97,4.72-8.97,10.52v15.44h65.36v-15.44c0-5.8-4.02-10.52-8.97-10.52h0Z"/></g><g><path class="cls-13" d="M646.9,323.27c-4.39,0-7.97-4.27-7.97-9.52v-14.44h63.36v14.44c0,5.25-3.58,9.52-7.97,9.52h-47.42Z"/><path d="M701.29,300.31v13.44c0,4.71-3.12,8.52-6.97,8.52h-47.42c-3.85,0-6.97-3.82-6.97-8.52v-13.44h61.36m2-2h-65.36v15.44c0,5.8,4.02,10.52,8.97,10.52h47.42c4.95,0,8.97-4.72,8.97-10.52v-15.44h0Z"/></g></g></svg>