<?xml version="1.0" encoding="UTF-8"?><svg id="Notes" xmlns="http://www.w3.org/2000/svg" viewBox="0 0 1000 1000"><defs><style>.cls-1,.cls-2,.cls-3,.cls-4,.cls-5,.cls-6,.cls-7{font-family:ProximaNova-Black, 'Proxima Nova';font-weight:800;}.cls-1,.cls-7{font-size:87.5px;}.cls-1,.cls-8{fill:#ff9100;}.cls-9{letter-spacing:0em;}.cls-2{font-size:26.19px;}.cls-10{fill:#ff2a00;}.cls-3{font-size:21.5px;}.cls-4,.cls-6{font-size:17.06px;}.cls-5{font-size:30.61px;}.cls-11{stroke:#ff4229;stroke-width:20px;}.cls-11,.cls-12{fill:none;stroke-miterlimit:10;}.cls-12{stroke:#ff9100;stroke-width:8px;}.cls-13,.cls-6{fill:#ccc;}.cls-14{fill:#f2f2f2;}</style></defs><g id="Warstwa_11"><circle class="cls-10" cx="500" cy="500" r="442.89"/><path class="cls-11" d="M837.01,787.37s-24.62-22.85-20.88-57.24c4.83-44.48,32.85-104.5-29.24-120.29-110.1-27.99-63.01-7.2-177.38,23.15s-158.12-79.99-189.54,64.82c-21.2,97.73-56.22,43.38-109.54,97.42s-63.38,68.38-63.38,68.38"/><path class="cls-11" d="M622.6,74.3s-34.23,114.2-130.21,156.37-130.05-23.51-130.05-23.51c0,0-48.6-73.03,15.2-103.54s66.02,36.62,66.02,36.62c0,0-3.9,80.65-51.62,111.16-23.65,15.13-111.11,30.44-138.55-3.57-27.92-34.6-59.75-67.67-59.75-67.67"/><path class="cls-11" d="M941.65,466.55s-46.4,3.97-63.06,21.71-45.35,7.11-67.06-25.55-71.03-253.56-150.09-119.75-199.59,44.71-199.59,44.71c0,0-62.27-27.14-170.85,137.32-51.93,78.65-99.17,100.61-141.07,74.74-41.91-25.87-85.38-18.47-85.38-18.47"/></g><g id="Warstwa_12"><rect class="cls-13" x="84.2" y="235.11" width="849.63" height="487.59" rx="38" ry="38" transform="translate(-37.74 43.58) rotate(-4.73)"/><rect class="cls-14" x="86.56" y="237.96" width="849.63" height="487.59" rx="38" ry="38"/><text class="cls-1" transform="translate(202.58 341.71)"><tspan x="0" y="0">Present Simple</tspan></text><text class="cls-7" transform="translate(201.62 339.86)"><tspan x="0" y="0">Present Simple</tspan></text><path class="cls-12" d="M247.47,471.11s49.7-23.01,52.94-41.07-7.65-35.51-20.67-45.9-29.01-7.25-31.34,5.95c-2.33,13.2,7.63,29.13,29.34,21.34,21.71-7.8,23.83-57.1,23.83-57.1"/><rect class="cls-8" x="242.62" y="472.2" width="28.35" height="6.26" transform="translate(137.94 -51.69) rotate(15.67)"/><rect class="cls-8" x="234.99" y="458.62" width="28.35" height="6.26" transform="translate(-262.73 576.94) rotate(-74.33)"/><text class="cls-5" transform="translate(126.65 481.76)"><tspan x="0" y="0">Słówka</tspan></text><text class="cls-3" transform="translate(139.65 514.4)"><tspan x="0" y="0">Always (Zawsze)</tspan><tspan x="-15.58" y="25.8">Usually (Zazwyczaj)</tspan><tspan x="10.95" y="51.61">Often (Często)</tspan><tspan x="-25.03" y="77.42">Sometimes (Czasami)</tspan><tspan x="-49.7" y="103.22">Hardly ever (Prawie nigdy)</tspan><tspan x="14.46" y="129.03">Never (Nigdy)</tspan></text><path class="cls-12" d="M732.58,483.48s-49.7-23.01-52.94-41.07c-3.24-18.06,7.65-35.51,20.67-45.9s29.01-7.25,31.34,5.95c2.33,13.2-7.63,29.13-29.34,21.34s-23.83-57.1-23.83-57.1"/><rect class="cls-8" x="709.09" y="484.57" width="28.35" height="6.26" transform="translate(1551.37 761.91) rotate(164.33)"/><rect class="cls-8" x="716.71" y="470.99" width="28.35" height="6.26" transform="translate(471.8 1305.91) rotate(-105.67)"/><text class="cls-2" transform="translate(741.39 498.16)"><tspan x="0" y="0">Kiedy używamy</tspan></text><g><path d="M705.03,523.48h5.15v3.22h-5.15v-3.22Z"/><path d="M729.44,525.69h-1.56v4.59h-4.33v-14.3h7.63c3.34,0,5.15,2.23,5.15,4.91,0,2.46-1.44,3.77-2.57,4.33l2.59,5.06h-4.93l-1.97-4.59Zm1.07-6.11h-2.64v2.51h2.64c.73,0,1.42-.47,1.42-1.26s-.69-1.24-1.42-1.24Z"/><path d="M744.99,529.12c-.6,.66-1.74,1.41-3.56,1.41-2.4,0-3.43-1.44-3.43-3.22v-7.4h3.86v5.75c0,1.05,.56,1.46,1.5,1.46,.86,0,1.31-.45,1.63-.81v-6.39h3.86v10.35h-3.86v-1.16Z"/><path d="M751.79,527.28v-4.01h-1.72v-3.34h1.72v-2.83h3.86v2.83h2.1v3.34h-2.1v2.89c0,.54,.34,.96,.86,.96,.34,0,.69-.11,.77-.19l.69,2.92c-.41,.36-1.31,.69-2.62,.69-2.29,0-3.56-1.09-3.56-3.26Z"/><path d="M760.43,531.07c.75,0,1.22-.13,1.35-.41l.09-.21-4.07-10.53h4.07l1.97,5.92,1.99-5.92h4.07l-4.5,11.64c-.92,2.4-2.64,2.85-4.82,2.92-.28,0-1.14-.06-1.5-.17l.54-3.43c.24,.13,.56,.19,.81,.19Z"/><path d="M777.67,524.55c0-1.07-.58-1.48-1.5-1.48s-1.33,.45-1.65,.81v6.39h-3.86v-10.35h3.86v1.18c.6-.69,1.74-1.44,3.56-1.44,2.4,0,3.45,1.46,3.45,3.26v7.35h-3.86v-5.72Z"/><path d="M784.92,531.07c.75,0,1.22-.13,1.35-.41l.09-.21-4.07-10.53h4.07l1.97,5.92,1.99-5.92h4.07l-4.5,11.64c-.92,2.4-2.64,2.85-4.82,2.92-.28,0-1.14-.06-1.5-.17l.54-3.43c.24,.13,.56,.19,.81,.19Z"/><path d="M800.38,516.68c0-1.2,.96-2.17,2.17-2.17s2.17,.96,2.17,2.17-.96,2.17-2.17,2.17-2.17-.96-2.17-2.17Zm.24,3.24h3.86v10.35h-3.86v-10.35Z"/><path d="M811.73,527.45l3.64-4.18h-3.64v-3.34h8.92v2.7l-3.73,4.31h3.82v3.34h-9v-2.83Z"/><path d="M830.06,524.49l-1.67,5.79h-4.2l-3-10.35h3.97l1.37,5.7,1.82-5.7h3.45l1.8,5.7,1.37-5.7h3.99l-3,10.35h-4.2l-1.69-5.79Z"/><path d="M841.02,531.07c.75,0,1.22-.13,1.35-.41l.09-.21-4.07-10.53h4.07l1.97,5.92,1.99-5.92h4.07l-4.5,11.64c-.92,2.4-2.64,2.85-4.82,2.92-.28,0-1.14-.06-1.5-.17l.54-3.43c.24,.13,.56,.19,.81,.19Z"/><path d="M856.35,519.66c2.36,0,3.82,1.07,4.4,1.95l-2.49,2.34c-.32-.49-.92-.88-1.74-.88-1.09,0-2.04,.69-2.04,2.01s.94,2.04,2.04,2.04c.81,0,1.42-.43,1.74-.9l2.49,2.36c-.58,.86-2.04,1.95-4.4,1.95-3.28,0-5.81-2.14-5.81-5.45s2.53-5.42,5.81-5.42Z"/><path d="M861.65,527.45l3.64-4.18h-3.64v-3.34h8.92v2.7l-3.73,4.31h3.82v3.34h-9v-2.83Z"/><path d="M878.42,529.29c-.58,.73-1.84,1.24-3.13,1.24-1.54,0-3.56-1.05-3.56-3.41,0-2.57,2.02-3.19,3.56-3.19,1.35,0,2.57,.43,3.13,1.14v-1.18c0-.73-.66-1.29-1.93-1.29-.96,0-2.06,.39-2.87,1.01l-1.31-2.38c1.39-1.12,3.32-1.57,4.89-1.57,2.57,0,5.08,.9,5.08,4.35v6.26h-3.86v-.99Zm0-2.4c-.26-.36-.92-.56-1.52-.56-.64,0-1.35,.21-1.35,.86s.71,.84,1.35,.84c.6,0,1.26-.19,1.52-.56v-.58Z"/><path d="M888.28,529.83c0,2.66-1.31,4.65-4.31,4.65-.49,0-.88-.02-1.2-.09v-3.11c.21,.04,.39,.04,.51,.04,.71,0,1.14-.51,1.14-1.5v-9.9h3.86v9.9Zm-4.09-13.14c0-1.2,.96-2.17,2.17-2.17s2.17,.96,2.17,2.17-.96,2.17-2.17,2.17-2.17-.96-2.17-2.17Z"/><path d="M895.36,519.66c3.04,0,5.38,2.19,5.38,5.83v.79h-7.03c.21,.66,.96,1.31,2.27,1.31,.88,0,1.82-.32,2.34-.73l1.59,2.38c-1.03,.88-2.87,1.29-4.42,1.29-3.24,0-5.77-2.04-5.77-5.45,0-3,2.29-5.42,5.64-5.42Zm-1.69,4.18h3.41c-.11-.45-.47-1.24-1.71-1.24-1.18,0-1.56,.77-1.69,1.24Z"/><path d="M715.7,549.21h5.15v3.22h-5.15v-3.22Z"/><path d="M743.67,550.54h-5.12v5.47h-4.33v-14.3h4.33v5.06h5.12v-5.06h4.33v14.3h-4.33v-5.47Z"/><path d="M756.22,555.02c-.58,.73-1.84,1.24-3.13,1.24-1.54,0-3.56-1.05-3.56-3.41,0-2.57,2.02-3.19,3.56-3.19,1.35,0,2.57,.43,3.13,1.14v-1.18c0-.73-.66-1.29-1.93-1.29-.96,0-2.06,.39-2.87,1.01l-1.31-2.38c1.39-1.12,3.32-1.57,4.89-1.57,2.57,0,5.08,.9,5.08,4.35v6.26h-3.86v-.99Zm0-2.4c-.26-.36-.92-.56-1.52-.56-.64,0-1.35,.21-1.35,.86s.71,.84,1.35,.84c.6,0,1.26-.19,1.52-.56v-.58Z"/><path d="M762.22,545.66h3.86v1.18c.64-.75,1.99-1.44,3.17-1.44v3.69c-.19-.06-.51-.11-.88-.11-.81,0-1.86,.21-2.29,.73v6.3h-3.86v-10.35Z"/><path d="M783.81,549.96c0-.62-.32-1.16-1.18-1.16s-1.33,.51-1.59,.81v6.39h-3.86v-6.05c0-.62-.3-1.16-1.18-1.16s-1.31,.51-1.57,.81v6.39h-3.86v-10.35h3.86v1.18c.45-.58,1.76-1.44,3.43-1.44,1.46,0,2.51,.54,2.98,1.82,.6-.9,1.95-1.82,3.62-1.82,1.91,0,3.19,.96,3.19,3.11v7.5h-3.86v-6.05Z"/><path d="M789.11,550.82c0-2.89,2.14-5.42,5.81-5.42s5.83,2.53,5.83,5.42-2.14,5.45-5.83,5.45-5.81-2.55-5.81-5.45Zm7.68,0c0-1.14-.66-2.01-1.87-2.01s-1.84,.88-1.84,2.01,.66,2.04,1.84,2.04,1.87-.88,1.87-2.04Z"/><path d="M809.2,550.29c0-1.07-.58-1.48-1.5-1.48s-1.33,.45-1.65,.81v6.39h-3.86v-10.35h3.86v1.18c.6-.69,1.74-1.44,3.56-1.44,2.4,0,3.45,1.46,3.45,3.26v7.35h-3.86v-5.72Z"/><path d="M814.5,550.82c0-2.89,2.14-5.42,5.81-5.42s5.83,2.53,5.83,5.42-2.14,5.45-5.83,5.45-5.81-2.55-5.81-5.45Zm7.68,0c0-1.14-.66-2.01-1.87-2.01s-1.84,.88-1.84,2.01,.66,2.04,1.84,2.04,1.87-.88,1.87-2.04Z"/><path d="M828.85,555.92c.79,.79,1.97,1.14,3.09,1.14,.9,0,2.4-.34,2.4-2.17v-.56c-.88,1.01-1.84,1.39-2.92,1.39-2.49,0-4.55-1.63-4.55-5.17s1.99-5.17,4.55-5.17c1.07,0,2.08,.36,2.92,1.35v-1.09h3.86v9.24c0,4.48-3.69,5.32-6.26,5.32-1.78,0-3.37-.47-4.72-1.54l1.63-2.74Zm5.49-6.45c-.36-.43-1.09-.66-1.59-.66-1.05,0-1.93,.49-1.93,1.76s.88,1.76,1.93,1.76c.49,0,1.22-.24,1.59-.66v-2.19Z"/><path d="M840.34,545.66h3.86v1.18c.64-.75,1.99-1.44,3.17-1.44v3.69c-.19-.06-.51-.11-.88-.11-.81,0-1.86,.21-2.29,.73v6.3h-3.86v-10.35Z"/><path d="M854.69,555.02c-.58,.73-1.84,1.24-3.13,1.24-1.54,0-3.56-1.05-3.56-3.41,0-2.57,2.02-3.19,3.56-3.19,1.35,0,2.57,.43,3.13,1.14v-1.18c0-.73-.66-1.29-1.93-1.29-.96,0-2.06,.39-2.87,1.01l-1.31-2.38c1.39-1.12,3.32-1.57,4.89-1.57,2.57,0,5.08,.9,5.08,4.35v6.26h-3.86v-.99Zm0-2.4c-.26-.36-.92-.56-1.52-.56-.64,0-1.35,.21-1.35,.86s.71,.84,1.35,.84c.6,0,1.26-.19,1.52-.56v-.58Z"/><path d="M873.92,549.96c0-.62-.32-1.16-1.18-1.16s-1.33,.51-1.59,.81v6.39h-3.86v-6.05c0-.62-.3-1.16-1.18-1.16s-1.31,.51-1.57,.81v6.39h-3.86v-10.35h3.86v1.18c.45-.58,1.76-1.44,3.43-1.44,1.46,0,2.51,.54,2.98,1.82,.6-.9,1.95-1.82,3.62-1.82,1.91,0,3.19,.96,3.19,3.11v7.5h-3.86v-6.05Z"/><path d="M881.17,556.8c.75,0,1.22-.13,1.35-.41l.09-.21-4.07-10.53h4.07l1.97,5.92,1.99-5.92h4.07l-4.5,11.64c-.92,2.4-2.64,2.85-4.82,2.92-.28,0-1.14-.06-1.5-.17l.54-3.43c.24,.13,.56,.19,.81,.19Z"/><path d="M679.67,574.95h5.15v3.22h-5.15v-3.22Z"/><path d="M698.19,567.44h6.39c4.5,0,7.85,2.57,7.85,7.14s-3.34,7.16-7.83,7.16h-6.41v-14.3Zm6.39,10.53c2.17,0,3.45-1.59,3.45-3.39,0-1.93-1.11-3.37-3.43-3.37h-2.08v6.75h2.06Z"/><path d="M719.74,573.96l-1.46,.84v6.95h-3.86v-4.7l-1.46,.84v-2.7l1.46-.84v-6.9h3.86v4.67l1.46-.84v2.68Z"/><path d="M727.95,580.59c-.6,.66-1.74,1.41-3.56,1.41-2.4,0-3.43-1.44-3.43-3.22v-7.4h3.86v5.75c0,1.05,.56,1.46,1.5,1.46,.86,0,1.31-.45,1.63-.81v-6.39h3.86v10.35h-3.86v-1.16Z"/><path d="M735.22,581.66c.79,.79,1.97,1.14,3.09,1.14,.9,0,2.4-.34,2.4-2.17v-.56c-.88,1.01-1.84,1.39-2.92,1.39-2.49,0-4.55-1.63-4.55-5.17s1.99-5.17,4.55-5.17c1.07,0,2.08,.36,2.92,1.35v-1.09h3.86v9.24c0,4.48-3.69,5.32-6.26,5.32-1.78,0-3.37-.47-4.72-1.54l1.63-2.74Zm5.49-6.45c-.36-.43-1.09-.66-1.59-.66-1.05,0-1.93,.49-1.93,1.76s.88,1.76,1.93,1.76c.49,0,1.22-.24,1.59-.66v-2.19Z"/><path d="M746.01,576.55c0-2.89,2.14-5.42,5.81-5.42s5.83,2.53,5.83,5.42-2.14,5.45-5.83,5.45-5.81-2.55-5.81-5.45Zm7.68,0c0-1.14-.66-2.01-1.87-2.01s-1.84,.88-1.84,2.01,.66,2.04,1.84,2.04,1.87-.88,1.87-2.04Z"/><path d="M759.88,578.74v-4.01h-1.72v-3.34h1.72v-2.83h3.86v2.83h2.1v3.34h-2.1v2.89c0,.54,.34,.96,.86,.96,.34,0,.69-.11,.77-.19l.69,2.92c-.41,.36-1.31,.69-2.62,.69-2.29,0-3.56-1.09-3.56-3.26Z"/><path d="M767.28,571.39h3.86v1.18c.64-.75,1.99-1.44,3.17-1.44v3.69c-.19-.06-.51-.11-.88-.11-.81,0-1.86,.21-2.29,.73v6.3h-3.86v-10.35Z"/><path d="M783.19,575.96l-1.67,5.79h-4.2l-3-10.35h3.97l1.37,5.7,1.82-5.7h3.45l1.8,5.7,1.37-5.7h3.99l-3,10.35h-4.2l-1.69-5.79Z"/><path d="M798.89,580.76c-.58,.73-1.84,1.24-3.13,1.24-1.54,0-3.56-1.05-3.56-3.41,0-2.57,2.02-3.19,3.56-3.19,1.35,0,2.57,.43,3.13,1.14v-1.18c0-.73-.66-1.29-1.93-1.29-.96,0-2.06,.39-2.87,1.01l-1.31-2.38c1.39-1.12,3.32-1.57,4.89-1.57,2.57,0,5.08,.9,5.08,4.35v6.26h-3.86v-.99Zm0-2.4c-.26-.36-.92-.56-1.52-.56-.64,0-1.35,.21-1.35,.86s.71,.84,1.35,.84c.6,0,1.26-.19,1.52-.56v-.58Z"/><path d="M810.75,573.96l-1.46,.84v6.95h-3.86v-4.7l-1.46,.84v-2.7l1.46-.84v-6.9h3.86v4.67l1.46-.84v2.68Z"/><path d="M816.9,571.13c3.04,0,5.38,2.19,5.38,5.83v.79h-7.03c.21,.66,.96,1.31,2.27,1.31,.88,0,1.82-.32,2.34-.73l1.59,2.38c-1.03,.88-2.87,1.29-4.42,1.29-3.24,0-5.77-2.04-5.77-5.45,0-3,2.29-5.42,5.64-5.42Zm-1.69,4.18h3.41c-.11-.45-.47-1.24-1.71-1.24-1.18,0-1.56,.77-1.69,1.24Z"/><path d="M834.19,571.13c2.36,0,3.82,1.07,4.4,1.95l-2.49,2.34c-.32-.49-.92-.88-1.74-.88-1.09,0-2.04,.69-2.04,2.01s.94,2.04,2.04,2.04c.81,0,1.42-.43,1.74-.9l2.49,2.36c-.58,.86-2.04,1.95-4.4,1.95-3.28,0-5.81-2.14-5.81-5.45s2.53-5.42,5.81-5.42Z"/><path d="M839.49,578.91l3.64-4.18h-3.64v-3.34h8.92v2.7l-3.73,4.31h3.82v3.34h-9v-2.83Z"/><path d="M851.52,582.54c.75,0,1.22-.13,1.35-.41l.09-.21-4.07-10.53h4.07l1.97,5.92,1.99-5.92h4.07l-4.5,11.64c-.92,2.4-2.64,2.85-4.82,2.92-.28,0-1.14-.06-1.5-.17l.54-3.43c.24,.13,.56,.19,.81,.19Z"/><path d="M868.76,576.02c0-1.07-.58-1.48-1.5-1.48s-1.33,.45-1.65,.81v6.39h-3.86v-10.35h3.86v1.18c.6-.69,1.74-1.44,3.56-1.44,2.4,0,3.45,1.46,3.45,3.26v7.35h-3.86v-5.72Z"/><path d="M881.77,576.02c0-1.07-.58-1.48-1.5-1.48s-1.33,.45-1.65,.81v6.39h-3.86v-10.35h3.86v1.18c.6-.69,1.74-1.44,3.56-1.44,2.4,0,3.45,1.46,3.45,3.26v7.35h-3.86v-5.72Z"/><path d="M887.07,576.55c0-2.89,2.14-5.42,5.81-5.42s5.83,2.53,5.83,5.42-2.14,5.45-5.83,5.45-5.81-2.55-5.81-5.45Zm7.68,0c0-1.14-.66-2.01-1.87-2.01s-1.84,.88-1.84,2.01,.66,2.04,1.84,2.04,1.87-.88,1.87-2.04Z"/><path d="M900.82,577.82c.81,.64,2.57,1.31,3.73,1.31,.79,0,1.03-.21,1.03-.49,0-.34-.47-.47-1.46-.6-1.74-.24-4.42-.56-4.42-3.37,0-1.86,1.63-3.54,4.63-3.54,1.74,0,3.28,.54,4.48,1.33l-1.41,2.51c-.64-.54-1.84-1.07-3.04-1.07-.56,0-.96,.15-.96,.45s.3,.43,1.33,.58c1.74,.26,4.54,.62,4.54,3.52,0,2.06-1.84,3.56-4.91,3.56-1.91,0-3.97-.66-5.08-1.59l1.54-2.59Zm2.14-8l2.57-3.09h3.32l-3.32,3.09h-2.57Z"/><path d="M915.76,571.13c2.36,0,3.82,1.07,4.4,1.95l-2.49,2.34c-.32-.49-.92-.88-1.74-.88-1.09,0-2.04,.69-2.04,2.01s.94,2.04,2.04,2.04c.81,0,1.42-.43,1.74-.9l2.49,2.36c-.58,.86-2.04,1.95-4.4,1.95-3.28,0-5.81-2.14-5.81-5.45s2.53-5.42,5.81-5.42Z"/><path d="M921.19,568.15c0-1.2,.96-2.17,2.17-2.17s2.17,.96,2.17,2.17-.96,2.17-2.17,2.17-2.17-.96-2.17-2.17Zm.24,3.24h3.86v10.35h-3.86v-10.35Z"/><path d="M692.45,600.68h5.15v3.22h-5.15v-3.22Z"/><path d="M710.96,593.18h7.63c3.34,0,5.15,2.23,5.15,4.91s-1.8,4.8-5.15,4.8h-3.3v4.59h-4.33v-14.3Zm7.07,3.6h-2.74v2.51h2.74c.73,0,1.31-.49,1.31-1.24s-.58-1.27-1.31-1.27Z"/><path d="M725.07,597.12h3.86v1.18c.64-.75,1.99-1.44,3.17-1.44v3.69c-.19-.06-.51-.11-.88-.11-.81,0-1.86,.21-2.29,.73v6.3h-3.86v-10.35Z"/><path d="M739.42,606.49c-.58,.73-1.84,1.24-3.13,1.24-1.54,0-3.56-1.05-3.56-3.41,0-2.57,2.02-3.19,3.56-3.19,1.35,0,2.57,.43,3.13,1.14v-1.18c0-.73-.66-1.29-1.93-1.29-.96,0-2.06,.39-2.87,1.01l-1.31-2.38c1.39-1.12,3.32-1.57,4.89-1.57,2.57,0,5.08,.9,5.08,4.35v6.26h-3.86v-.99Zm0-2.4c-.26-.36-.92-.56-1.52-.56-.64,0-1.35,.21-1.35,.86s.71,.84,1.35,.84c.6,0,1.26-.19,1.52-.56v-.58Z"/><path d="M752.97,601.69l-1.67,5.79h-4.2l-3-10.35h3.97l1.37,5.7,1.82-5.7h3.45l1.8,5.7,1.37-5.7h3.99l-3,10.35h-4.2l-1.69-5.79Z"/><path d="M768.67,606.49c-.58,.73-1.84,1.24-3.13,1.24-1.54,0-3.56-1.05-3.56-3.41,0-2.57,2.02-3.19,3.56-3.19,1.35,0,2.57,.43,3.13,1.14v-1.18c0-.73-.66-1.29-1.93-1.29-.96,0-2.06,.39-2.87,1.01l-1.31-2.38c1.39-1.12,3.32-1.57,4.89-1.57,2.57,0,5.08,.9,5.08,4.35v6.26h-3.86v-.99Zm0-2.4c-.26-.36-.92-.56-1.52-.56-.64,0-1.35,.21-1.35,.86s.71,.84,1.35,.84c.6,0,1.26-.19,1.52-.56v-.58Z"/><path d="M787.15,601.75c0-1.07-.58-1.48-1.5-1.48s-1.33,.45-1.65,.81v6.39h-3.86v-10.35h3.86v1.18c.6-.69,1.74-1.44,3.56-1.44,2.4,0,3.45,1.46,3.45,3.26v7.35h-3.86v-5.72Z"/><path d="M799.14,606.49c-.58,.73-1.84,1.24-3.13,1.24-1.54,0-3.56-1.05-3.56-3.41,0-2.57,2.02-3.19,3.56-3.19,1.35,0,2.57,.43,3.13,1.14v-1.18c0-.73-.66-1.29-1.93-1.29-.96,0-2.06,.39-2.87,1.01l-1.31-2.38c1.39-1.12,3.32-1.57,4.89-1.57,2.57,0,5.08,.9,5.08,4.35v6.26h-3.86v-.99Zm0-2.4c-.26-.36-.92-.56-1.52-.56-.64,0-1.35,.21-1.35,.86s.71,.84,1.35,.84c.6,0,1.26-.19,1.52-.56v-.58Z"/><path d="M805.94,604.48v-4.01h-1.72v-3.34h1.72v-2.83h3.86v2.83h2.1v3.34h-2.1v2.89c0,.54,.34,.96,.86,.96,.34,0,.69-.11,.77-.19l.69,2.92c-.41,.36-1.31,.69-2.62,.69-2.29,0-3.56-1.09-3.56-3.26Z"/><path d="M820.32,606.32c-.6,.66-1.74,1.41-3.56,1.41-2.4,0-3.43-1.44-3.43-3.22v-7.4h3.86v5.75c0,1.05,.56,1.46,1.5,1.46,.86,0,1.31-.45,1.63-.81v-6.39h3.86v10.35h-3.86v-1.16Z"/><path d="M826.33,597.12h3.86v1.18c.64-.75,1.99-1.44,3.17-1.44v3.69c-.19-.06-.51-.11-.88-.11-.81,0-1.86,.21-2.29,.73v6.3h-3.86v-10.35Z"/><path d="M835.94,608.27c.75,0,1.22-.13,1.35-.41l.09-.21-4.07-10.53h4.07l1.97,5.92,1.99-5.92h4.07l-4.5,11.64c-.92,2.4-2.64,2.85-4.82,2.92-.28,0-1.14-.06-1.5-.17l.54-3.43c.24,.13,.56,.19,.81,.19Z"/><path d="M851.4,593.89c0-1.2,.96-2.17,2.17-2.17s2.17,.96,2.17,2.17-.96,2.17-2.17,2.17-2.17-.96-2.17-2.17Zm.24,3.24h3.86v10.35h-3.86v-10.35Z"/><path d="M863.9,600.47h-1.72v-3.34h1.72v-.47c0-2.14,1.65-3.69,3.94-3.69,.99,0,1.84,.21,2.4,.51l-.69,2.57c-.24-.15-.54-.24-.81-.24-.58,0-.99,.36-.99,.96v.34h2.1v3.34h-2.1v7.01h-3.86v-7.01Z"/><path d="M877.04,606.49c-.58,.73-1.84,1.24-3.13,1.24-1.54,0-3.56-1.05-3.56-3.41,0-2.57,2.02-3.19,3.56-3.19,1.35,0,2.57,.43,3.13,1.14v-1.18c0-.73-.66-1.29-1.93-1.29-.96,0-2.06,.39-2.87,1.01l-1.31-2.38c1.39-1.12,3.32-1.57,4.89-1.57,2.57,0,5.08,.9,5.08,4.35v6.26h-3.86v-.99Zm0-2.4c-.26-.36-.92-.56-1.52-.56-.64,0-1.35,.21-1.35,.86s.71,.84,1.35,.84c.6,0,1.26-.19,1.52-.56v-.58Z"/><path d="M887.66,604.13l-.75,1.01v2.34h-3.86v-14.3h3.86v7.63l2.38-3.69h4.65l-3.56,4.72,3.79,5.64h-4.74l-1.78-3.34Z"/><path d="M895.79,604.48v-4.01h-1.72v-3.34h1.72v-2.83h3.86v2.83h2.1v3.34h-2.1v2.89c0,.54,.34,.96,.86,.96,.34,0,.69-.11,.77-.19l.69,2.92c-.41,.36-1.31,.69-2.62,.69-2.29,0-3.56-1.09-3.56-3.26Z"/><path d="M904.43,608.27c.75,0,1.22-.13,1.35-.41l.09-.21-4.07-10.53h4.07l1.97,5.92,1.99-5.92h4.07l-4.5,11.64c-.92,2.4-2.64,2.85-4.82,2.92-.28,0-1.14-.06-1.5-.17l.54-3.43c.24,.13,.56,.19,.81,.19Z"/></g><path class="cls-12" d="M496.12,357.81s-54.95,47.48-31.34,62.93c23.61,15.46,58.82,42.5,51.09,65.69"/><rect class="cls-8" x="510.25" y="480.84" width="28.35" height="6.26" transform="translate(-185.47 411.22) rotate(-36.85)"/><rect class="cls-8" x="494.84" y="478.63" width="28.35" height="6.26" transform="translate(428.78 1178) rotate(-126.85)"/><text class="cls-5" transform="translate(421.15 523.67)"><tspan x="0" y="0">Użycie every</tspan></text><text class="cls-4" transform="translate(411.58 550.6)"><tspan x="0" y="0">Every day (każdego dnia)</tspan><tspan x="-24.28" y="20.47">Every week (każdego tygodnia)</tspan><tspan x="-29.41" y="40.94">Every month (każdego miesiąca)</tspan><tspan x="-3.62" y="61.4">Every year (każdego roku)</tspan></text><text class="cls-6" transform="translate(209.68 717.39)"><tspan x="0" y="0">(Notatki na stronie będą ładniejsze, po prostu za szyb</tspan><tspan class="cls-9" x="425.74" y="0">k</tspan><tspan x="435.07" y="0">o robię storonę xD)</tspan></text></g></svg>